<?xml version="1.0" ?><!DOCTYPE svg  PUBLIC '-//W3C//DTD SVG 1.1//EN'  'http://www.w3.org/Graphics/SVG/1.1/DTD/svg11.dtd'><svg enable-background="new 0 0 128 128" id="Слой_1" version="1.1" viewBox="0 0 128 128" xml:space="preserve" xmlns="http://www.w3.org/2000/svg" xmlns:xlink="http://www.w3.org/1999/xlink"><path d="M13.6,107.4L3.3,47.7C1.4,37.2,8.2,27.2,18.5,24.8l82-18.6c13.4-3,25.8,8.1,24.3,21.7l-8.8,78.3  c-1.1,10.1-9.7,17.8-19.9,17.8H33.3C23.6,124,15.3,117,13.6,107.4z" fill="#F4F4EA"/><g><g><g><g opacity="0.5"><g><path d="M91.6,39.9c-6.8-6.8-6.8-17.9,0-24.7s17.9-6.8,24.7,0s6.8,17.9,0,24.7" fill="#E5DD4B"/></g></g><g opacity="0.5"><g><path d="M11.6,39.9C4.8,33,4.8,22,11.6,15.1s17.9-6.8,24.7,0s6.8,17.9,0,24.7" fill="#E5DD4B"/></g></g><g><path d="M122,77.5H6c-1.1,0-2-0.9-2-2v-26c0-1.1,0.9-2,2-2h116c1.1,0,2,0.9,2,2v26C124,76.6,123.1,77.5,122,77.5      z" fill="#F7D8CD"/></g><g><g><path d="M4,70.4v5.1c0,1.1,0.9,2,2,2h5.1l30-30l0,0H26.9L4,70.4z" fill="#FFFFFF"/></g></g><g><g><polygon fill="#FFFFFF" points="26.9,77.5 26.9,77.5 41.1,77.5 71.1,47.5 71.1,47.5 56.9,47.5      "/></g></g><g><g><polygon fill="#FFFFFF" points="56.9,77.5 56.9,77.5 71.1,77.5 101.1,47.5 101.1,47.5 86.9,47.5      "/></g></g><g><g><path d="M124,54.6v-5.1c0-1.1-0.9-2-2-2h-5.1l-30,30l0,0h14.1L124,54.6z" fill="#FFFFFF"/></g></g><g><g><path d="M122,79H6c-1.9,0-3.5-1.6-3.5-3.5v-26C2.5,47.6,4.1,46,6,46h116c1.9,0,3.5,1.6,3.5,3.5v26       C125.5,77.4,123.9,79,122,79z M6,49c-0.3,0-0.5,0.2-0.5,0.5v26C5.5,75.8,5.7,76,6,76h116c0.3,0,0.5-0.2,0.5-0.5v-26       c0-0.3-0.2-0.5-0.5-0.5H6z" fill="#B09AAC"/></g><g><path d="M24,124c-0.8,0-1.5-0.7-1.5-1.5v-45c0-0.8,0.7-1.5,1.5-1.5s1.5,0.7,1.5,1.5v45       C25.5,123.3,24.8,124,24,124z" fill="#B09AAC"/></g><g><path d="M104,124c-0.8,0-1.5-0.7-1.5-1.5v-45c0-0.8,0.7-1.5,1.5-1.5s1.5,0.7,1.5,1.5v45       C105.5,123.3,104.8,124,104,124z" fill="#B09AAC"/></g><g><path d="M44,124L44,124l-40,0c-0.8,0-1.5-0.7-1.5-1.5S3.2,121,4,121l0,0l40,0c0.8,0,1.5,0.7,1.5,1.5       S44.8,124,44,124z" fill="#B09AAC"/></g><g><path d="M124,124L124,124l-40,0c-0.8,0-1.5-0.7-1.5-1.5s0.7-1.5,1.5-1.5l0,0l40,0c0.8,0,1.5,0.7,1.5,1.5       S124.8,124,124,124z" fill="#B09AAC"/></g></g><g><g><circle cx="24" cy="27.5" fill="#FFFFFF" r="7.5"/></g></g><g><g><circle cx="104" cy="27.5" fill="#FFFFFF" r="7.5"/></g></g><g><g><circle cx="24" cy="27.5" fill="#F9C8B8" r="7.5"/></g></g><g><g><circle cx="104" cy="27.5" fill="#F9C8B8" r="7.5"/></g></g><g><g><path d="M24,36.5c-5,0-9-4-9-9s4-9,9-9s9,4,9,9S29,36.5,24,36.5z M24,21.5c-3.3,0-6,2.7-6,6s2.7,6,6,6       s6-2.7,6-6S27.3,21.5,24,21.5z" fill="#B09AAC"/></g></g><g><g><path d="M104,36.5c-5,0-9-4-9-9s4-9,9-9s9,4,9,9S109,36.5,104,36.5z M104,21.5c-3.3,0-6,2.7-6,6s2.7,6,6,6       s6-2.7,6-6S107.3,21.5,104,21.5z" fill="#B09AAC"/></g></g></g><g><g opacity="0.3"><path d="M26.4,54.1c-2.2,2.2-3.5,5.2-3.5,8.4c0,3.2,1.2,6.1,3.5,8.4l8.1,8.1h58.8l8.1-8.1      c2.2-2.2,3.5-5.2,3.5-8.4c0-3.2-1.2-6.1-3.5-8.4L93.4,46H34.6L26.4,54.1z" fill="#62345B"/></g><g><path d="M30.7,66.6l29.2,29.2c2.3,2.3,6,2.3,8.3,0l29.2-29.2c2.3-2.3,2.3-6,0-8.3L68.1,29.2      c-2.3-2.3-6-2.3-8.3,0L30.7,58.4C28.4,60.7,28.4,64.3,30.7,66.6z" fill="#F89D6F"/></g><g><path d="M64,91.7l-27-27c-1.2-1.2-1.2-3.1,0-4.2l24.9-24.9c1.2-1.2,3.1-1.2,4.2,0L91,60.4c1.2,1.2,1.2,3.1,0,4.2      L64,91.7C64,91.7,64,91.7,64,91.7z" fill="#FFFFFF"/></g><g><path d="M64,99c-2,0-3.8-0.8-5.2-2.1L29.6,67.7c-1.4-1.4-2.1-3.2-2.1-5.2c0-2,0.8-3.8,2.1-5.2l29.2-29.2      C60.2,26.8,62,26,64,26s3.8,0.8,5.2,2.1l29.2,29.2c1.4,1.4,2.1,3.2,2.1,5.2c0,2-0.8,3.8-2.1,5.2L69.1,96.9      C67.8,98.2,65.9,99,64,99z M64,29c-1.2,0-2.2,0.5-3.1,1.3L31.7,59.4c-0.8,0.8-1.3,1.9-1.3,3.1c0,1.2,0.5,2.2,1.3,3.1l29.2,29.2      c0.8,0.8,1.9,1.3,3.1,1.3c1.2,0,2.2-0.5,3.1-1.3l29.2-29.2c0.8-0.8,1.3-1.9,1.3-3.1c0-1.2-0.5-2.2-1.3-3.1L67,30.3      C66.2,29.5,65.1,29,64,29z" fill="#62345B"/></g><g><path d="M52.3,61.6v-4.3c0-0.3-0.2-0.5-0.5-0.5h-0.5c-0.3,0-0.5,0.2-0.5,0.5v4.3c0,1.2-0.8,1.8-1.7,1.8      c-0.8,0-1.6-0.5-1.6-1.8v-4.3c0-0.3-0.2-0.5-0.5-0.5h-0.5c-0.3,0-0.5,0.2-0.5,0.5v4.3c0,2.1,1.6,3.2,3.2,3.2      C50.7,64.9,52.3,63.7,52.3,61.6z" fill="#62345B"/><path d="M59.2,57.3c0-0.3-0.2-0.5-0.5-0.5h-0.5c-0.3,0-0.5,0.2-0.5,0.5v4.4l-3.8-4.7c-0.1-0.1-0.2-0.2-0.4-0.2      h-0.2c-0.3,0-0.5,0.2-0.5,0.5v7c0,0.3,0.2,0.5,0.5,0.5h0.5c0.3,0,0.5-0.2,0.5-0.5v-4.4l3.8,4.7c0.1,0.1,0.2,0.2,0.4,0.2h0.2      c0.3,0,0.5-0.2,0.5-0.5V57.3z" fill="#62345B"/><path d="M60.3,64.8h2.4c1.2,0,2.2-0.4,2.9-1.1c0.7-0.7,1.1-1.8,1.1-2.9c0-1.9-1.3-3.9-4-3.9h-2.4      c-0.3,0-0.5,0.2-0.5,0.5v7C59.8,64.5,60,64.8,60.3,64.8z M62.6,63.2h-1.3v-5h1.3c1.8,0,2.5,1.3,2.5,2.4c0,0.7-0.2,1.4-0.7,1.9      C64,63,63.4,63.2,62.6,63.2z" fill="#62345B"/><path d="M72.8,64.3v-0.5c0-0.3-0.2-0.5-0.5-0.5h-3.9v-1.8H72c0.3,0,0.5-0.2,0.5-0.5v-0.5c0-0.3-0.2-0.5-0.5-0.5      h-3.6v-1.7h3.8c0.3,0,0.5-0.2,0.5-0.5v-0.5c0-0.3-0.2-0.5-0.5-0.5h-4.8c-0.3,0-0.5,0.2-0.5,0.5v7c0,0.3,0.2,0.5,0.5,0.5h4.9      C72.6,64.8,72.8,64.5,72.8,64.3z" fill="#62345B"/><path d="M79.1,64.8C79.1,64.8,79.1,64.8,79.1,64.8c0.3,0,0.5-0.2,0.5-0.5c0-0.2-0.1-0.3-0.2-0.4l-1.8-1.9      c0.4-0.1,0.8-0.3,1-0.6c0.5-0.5,0.7-1.1,0.7-1.9c0-1.3-1-2.7-2.8-2.7h-3.1c-0.3,0-0.5,0.2-0.5,0.5v7c0,0.3,0.2,0.5,0.5,0.5h0.5      c0.3,0,0.5-0.2,0.5-0.5v-2.1h1.2l2.3,2.5c0.1,0.1,0.2,0.2,0.4,0.2H79.1z M74.6,58.3h2c0.4,0,0.7,0.1,0.9,0.3      c0.2,0.2,0.3,0.5,0.3,0.8c0,0.8-0.4,1.2-1.3,1.2h-2V58.3z" fill="#62345B"/><path d="M49.3,68.6l0.2,0.2l0.5-0.4l-0.2-0.2c-0.3-0.3-0.7-0.4-1.1-0.4c-0.4,0-0.8,0.1-1.1,0.4      c-0.3,0.3-0.4,0.7-0.4,1.1c0,0.9,0.6,1.5,1.5,1.5c0.4,0,0.8-0.2,1.1-0.4l0.2-0.2l-0.5-0.5l-0.2,0.2c-0.2,0.2-0.4,0.2-0.6,0.2      c-0.6,0-0.8-0.4-0.8-0.8c0-0.2,0.1-0.5,0.2-0.6C48.4,68.3,48.9,68.2,49.3,68.6z" fill="#62345B"/><path d="M51.7,67.7c-1,0-1.5,0.8-1.5,1.5c0,0.8,0.5,1.5,1.5,1.5c1,0,1.5-0.8,1.5-1.5c0-0.4-0.1-0.8-0.4-1.1      C52.5,67.8,52.1,67.7,51.7,67.7z M51.7,70c-0.5,0-0.8-0.4-0.8-0.8c0-0.3,0.1-0.5,0.2-0.6c0.1-0.1,0.3-0.2,0.6-0.2      c0.6,0,0.8,0.5,0.8,0.8C52.5,69.6,52.2,70,51.7,70z" fill="#62345B"/><polygon fill="#62345B" points="55.4,69.3 54.1,67.7 53.6,67.7 53.6,70.6 54.3,70.6 54.3,69.1 55.6,70.6 55.8,70.6 55.9,70.7       55.9,70.6 56,70.6 56,67.7 55.4,67.7     "/><path d="M57.8,68.3c0.3,0,0.4,0.1,0.5,0.2l0.1,0.2l0.6-0.3l-0.1-0.2c-0.3-0.5-0.7-0.5-1.1-0.5      c-0.2,0-0.7,0-1,0.3c-0.2,0.2-0.2,0.4-0.2,0.6c0,0.7,0.6,0.8,1.1,0.9c0.4,0.1,0.6,0.1,0.6,0.3c0,0.2-0.4,0.3-0.5,0.3      c-0.2,0-0.5-0.1-0.6-0.3L57,69.5l-0.6,0.3l0.1,0.2c0.2,0.5,0.8,0.7,1.2,0.7c0.7,0,1.2-0.4,1.2-0.9c0-0.7-0.7-0.9-1.2-0.9      c-0.4-0.1-0.5-0.1-0.5-0.2C57.3,68.3,57.7,68.3,57.8,68.3z" fill="#62345B"/><polygon fill="#62345B" points="59.2,68.4 60.1,68.4 60.1,70.6 60.8,70.6 60.8,68.4 61.7,68.4 61.7,67.7 59.2,67.7     "/><path d="M64.2,69.4c0.2-0.2,0.3-0.4,0.3-0.7c0-0.5-0.4-1-1.1-1h-1.3v2.9h0.7v-0.9h0.3l0.8,0.9h0.9l-1-1      C64,69.6,64.1,69.5,64.2,69.4z M62.7,68.4h0.6c0.1,0,0.2,0,0.3,0.1c0.1,0.1,0.1,0.1,0.1,0.2c0,0.2-0.1,0.3-0.4,0.3h-0.6V68.4z" fill="#62345B"/><path d="M66.6,69.5c0,0.4-0.3,0.5-0.5,0.5c-0.2,0-0.5-0.1-0.5-0.5v-1.8h-0.7v1.8c0,0.8,0.6,1.2,1.2,1.2      c0.6,0,1.2-0.4,1.2-1.2v-1.8h-0.7V69.5z" fill="#62345B"/><path d="M69.2,68.3c0.2,0,0.4,0.1,0.6,0.2l0.2,0.2l0.5-0.4l-0.2-0.2c-0.3-0.3-0.7-0.4-1.1-0.4      c-0.4,0-0.8,0.1-1.1,0.4c-0.3,0.3-0.4,0.7-0.4,1.1c0,0.9,0.6,1.5,1.5,1.5c0.4,0,0.8-0.2,1.1-0.4l0.2-0.2L70,69.6l-0.2,0.2      c-0.2,0.2-0.4,0.2-0.6,0.2c-0.6,0-0.8-0.4-0.8-0.8c0-0.2,0.1-0.5,0.2-0.6C68.8,68.4,69,68.3,69.2,68.3z" fill="#62345B"/><polygon fill="#62345B" points="70.6,68.4 71.5,68.4 71.5,70.6 72.2,70.6 72.2,68.4 73.1,68.4 73.1,67.7 70.6,67.7     "/><rect fill="#62345B" height="2.9" width="0.7" x="73.4" y="67.7"/><path d="M76.1,67.7c-1,0-1.5,0.8-1.5,1.5c0,0.8,0.5,1.5,1.5,1.5c1,0,1.5-0.8,1.5-1.5c0-0.4-0.1-0.8-0.4-1.1      C76.9,67.8,76.6,67.7,76.1,67.7z M76.1,70c-0.5,0-0.8-0.4-0.8-0.8c0-0.3,0.1-0.5,0.2-0.6c0.1-0.1,0.3-0.2,0.6-0.2      c0.6,0,0.8,0.5,0.8,0.8C77,69.6,76.7,70,76.1,70z" fill="#62345B"/><polygon fill="#62345B" points="79.8,67.7 79.8,69.3 78.6,67.7 78.1,67.7 78.1,70.6 78.8,70.6 78.8,69.1 80.1,70.6 80.3,70.6       80.3,70.7 80.3,70.6 80.5,70.6 80.5,67.7     "/></g></g></g></g></svg>